<svg width="76" height="97" viewBox="0 0 76 97" fill="none" xmlns="http://www.w3.org/2000/svg">
<g filter="url(#filter0_b_2_100)">
<rect width="75.5613" height="95.7455" transform="translate(0 0.684082)" fill="black" fill-opacity="0.1"/>
<path d="M29.5459 28.305C27.6562 34.7046 35.5585 40.3651 39.7458 42.3954C48.5248 34.6791 40.14 20.1494 34.7135 13.9615C35.2041 19.9963 31.9079 20.3056 29.5459 28.305Z" fill="black"/>
<path d="M39.7458 42.3954C35.5585 40.3651 27.6562 34.7046 29.5458 28.305C31.9079 20.3056 35.2041 19.9963 34.7135 13.9615C40.14 20.1494 48.5248 34.6791 39.7458 42.3954ZM39.7458 42.3954C39.5825 41.8654 39.4026 41.267 39.2122 40.6172C39.0826 40.1747 38.9481 39.7083 38.8108 39.2235M35.4611 17.713C35.6147 17.9 36.0847 18.9052 36.0233 21.3483M37.8461 35.6686L39.7596 33.7294M37.8461 35.6686C37.8061 35.5141 37.7662 35.3592 37.7265 35.2039M37.8461 35.6686C38.072 36.5404 38.302 37.3961 38.528 38.2133M37.7265 35.2039L34.2261 31.2615M37.7265 35.2039C37.5987 34.7036 37.4727 34.1995 37.35 33.6955M37.0176 32.2934L37.8536 28.9573M37.0176 32.2934C36.8788 31.6903 36.7468 31.0931 36.6244 30.5091M37.0176 32.2934C37.1247 32.7584 37.2359 33.2269 37.35 33.6955M36.6244 30.5091L34.9905 29.0251M36.6244 30.5091C36.4463 29.6589 36.2885 28.8367 36.1592 28.065M36.1592 28.065L38.1444 25.7615M36.1592 28.065C36.1136 27.7927 36.0716 27.5267 36.0334 27.2679M35.865 25.92L34.3164 24.0347M35.865 25.92C35.9064 26.3406 35.9633 26.7919 36.0334 27.2679M35.865 25.92C35.8467 25.7342 35.8315 25.5545 35.8194 25.3813M36.0334 27.2679L34.2175 25.0572M38.528 38.2133L34.553 33.8872M38.528 38.2133C38.6232 38.5574 38.7177 38.8947 38.8108 39.2235M38.8108 39.2235L40.4091 36.0284M37.35 33.6955L39.2418 32.1415M35.8442 23.626C35.8398 23.6611 35.8353 23.6965 35.8308 23.732C35.7745 24.1703 35.7742 24.7295 35.8194 25.3813M35.8442 23.626L37.4347 22.3195M35.8442 23.626C35.8936 23.2293 35.9318 22.8564 35.9603 22.5062M35.8194 25.3813L37.0212 24.3942M36.0233 21.3483L36.7663 19.9927M36.0233 21.3483C36.0144 21.7032 35.9943 22.0886 35.9603 22.5062M35.9603 22.5062L35.3591 20.5397" stroke="white" stroke-width="0.220821"/>
<path d="M47.0629 28.9628C40.6031 28.4023 37.5462 36.7418 36.8253 40.9817C46.4184 47.6568 57.5672 37.2319 61.8002 31.0797C56.3393 32.6484 55.1377 29.6635 47.0629 28.9628Z" fill="black"/>
<path d="M36.8253 40.9817C37.5462 36.7418 40.6031 28.4023 47.0629 28.9628C55.1377 29.6635 56.3393 32.6484 61.8002 31.0797C57.5672 37.2319 46.4184 47.6568 36.8253 40.9817ZM36.8253 40.9817C37.2715 40.733 37.7766 40.4563 38.3265 40.1604C38.7009 39.959 39.0961 39.7486 39.5077 39.5322M58.5283 32.4634C58.3975 32.6397 57.5957 33.2593 55.3128 33.6544M42.537 37.9846L44.8666 39.3919M42.537 37.9846C42.6692 37.9191 42.8018 37.8537 42.9348 37.7883M42.537 37.9846C41.7911 38.3543 41.0613 38.7248 40.3661 39.0845M42.9348 37.7883L45.6197 33.8288M42.9348 37.7883C43.3633 37.5778 43.7959 37.3683 44.2293 37.1619M45.4374 36.5959L48.7636 36.7506M45.4374 36.5959C45.9583 36.3562 46.4755 36.124 46.9832 35.9031M45.4374 36.5959C45.0359 36.7807 44.6323 36.9699 44.2293 37.1619M46.9832 35.9031L47.9062 34.1208M46.9832 35.9031C47.7223 35.5815 48.4411 35.2838 49.1209 35.0218M49.1209 35.0218L51.8083 36.4279M49.1209 35.0218C49.3608 34.9294 49.5959 34.8414 49.8253 34.7583M51.0287 34.3536L52.3474 32.5758M51.0287 34.3536C50.6501 34.4696 50.2473 34.6056 49.8253 34.7583M51.0287 34.3536C51.1959 34.3024 51.3584 34.2551 51.5157 34.212M49.8253 34.7583L51.3717 32.6736M40.3661 39.0845L43.2752 34.616M40.3661 39.0845C40.0734 39.236 39.7867 39.3855 39.5077 39.5322M39.5077 39.5322L42.9145 40.4165M44.2293 37.1619L46.1956 38.6205M53.1505 33.9102C53.1167 33.9127 53.0827 33.9151 53.0485 33.9175C52.6264 33.9466 52.1076 34.0497 51.5157 34.212M53.1505 33.9102L54.8037 35.1365M53.1505 33.9102C53.5322 33.8825 53.8887 33.8488 54.2214 33.8103M51.5157 34.212L52.7648 35.1385M55.3128 33.6544L56.7763 34.0894M55.3128 33.6544C54.9811 33.7118 54.6181 33.7645 54.2214 33.8103M54.2214 33.8103L55.8784 32.8919" stroke="white" stroke-width="0.220821"/>
<path d="M24.4656 35.6992C25.743 42.0563 34.6055 42.6464 38.877 42.1469C42.5875 31.0646 29.4498 23.2945 22.3559 20.9609C25.3959 25.7609 22.869 27.7529 24.4656 35.6992Z" fill="black"/>
<path d="M38.877 42.1469C34.6055 42.6464 25.743 42.0563 24.4656 35.6992C22.869 27.7529 25.3959 25.7609 22.3559 20.9609C29.4498 23.2945 42.5875 31.0646 38.877 42.1469ZM38.877 42.1469C38.513 41.7885 38.1055 41.3816 37.6671 40.937C37.3685 40.6343 37.0556 40.3141 36.7323 39.9799M24.6033 23.7121C24.8092 23.7881 25.6292 24.3835 26.6499 26.4634M34.3957 37.5075L35.0917 34.8763M34.3957 37.5075C34.2958 37.3991 34.1957 37.2902 34.0956 37.1809M34.3957 37.5075C34.9601 38.1195 35.5208 38.7158 36.0613 39.2819M34.0956 37.1809L29.5411 35.7168M34.0956 37.1809C33.7732 36.8289 33.4505 36.4726 33.1306 36.1147M32.2479 35.1142L31.4617 31.8787M32.2479 35.1142C31.8715 34.6817 31.5033 34.2506 31.1487 33.8254M32.2479 35.1142C32.5381 35.4476 32.8332 35.7818 33.1306 36.1147M31.1487 33.8254L29.1788 33.4405M31.1487 33.8254C30.6323 33.2065 30.1447 32.6003 29.7022 32.0215M29.7022 32.0215L30.2965 29.0473M29.7022 32.0215C29.5461 31.8172 29.3955 31.6164 29.2514 31.4195M28.5248 30.3783L26.4481 29.6123M28.5248 30.3783C28.7425 30.7091 28.9862 31.0575 29.2514 31.4195M28.5248 30.3783C28.4287 30.2323 28.3376 30.0896 28.252 29.9508M29.2514 31.4195L26.8161 30.5213M36.0613 39.2819L30.9554 37.7457M36.0613 39.2819C36.289 39.5203 36.513 39.7533 36.7323 39.9799M36.7323 39.9799L36.6235 36.4618M33.1306 36.1147L33.9779 33.8177M27.503 28.4666C27.5149 28.4984 27.5268 28.5303 27.5386 28.5625C27.6852 28.9594 27.9299 29.4283 28.252 29.9508M27.503 28.4666L28.2154 26.5355M27.503 28.4666C27.3692 28.1081 27.2367 27.7755 27.1063 27.467M28.252 29.9508L28.7902 28.4917M26.6499 26.4634L26.6561 24.9366M26.6499 26.4634C26.7982 26.7656 26.9507 27.0991 27.1063 27.467M27.1063 27.467L25.7592 26.1348" stroke="white" stroke-width="0.220821"/>
<path d="M41.2644 25.5195C35.1821 27.7666 35.9726 36.6135 37.1282 40.756C48.6517 42.704 54.2916 28.5208 55.4976 21.1509C51.2268 24.8982 48.8672 22.7105 41.2644 25.5195Z" fill="black"/>
<path d="M37.1282 40.756C35.9726 36.6135 35.1821 27.7666 41.2644 25.5195C48.8672 22.7105 51.2268 24.8982 55.4976 21.1509C54.2916 28.5208 48.6517 42.704 37.1282 40.756ZM37.1282 40.756C37.4258 40.3408 37.7647 39.8752 38.1359 39.3731C38.3887 39.0313 38.6565 38.6725 38.9366 38.3013M53.128 23.7976C53.0848 24.0128 52.6237 24.9152 50.7271 26.2459M41.0169 35.6098L43.7242 35.8896M41.0169 35.6098C41.1085 35.4943 41.2006 35.3785 41.2931 35.2626M41.0169 35.6098C40.4998 36.2622 39.9976 36.9085 39.5222 37.5303M41.2931 35.2626L42.0336 30.5363M41.2931 35.2626C41.5909 34.8896 41.8929 34.5156 42.1969 34.1441M43.0485 33.117L46.1231 31.8388M43.0485 33.117C43.4174 32.6782 43.7863 32.2476 44.1513 31.8313M43.0485 33.117C42.764 33.4554 42.4796 33.7987 42.1969 34.1441M44.1513 31.8313L44.2262 29.8256M44.1513 31.8313C44.6827 31.2253 45.206 30.6496 45.7092 30.1227M45.7092 30.1227L48.7396 30.2489M45.7092 30.1227C45.8868 29.9368 46.0619 29.757 46.2341 29.5841M47.1501 28.7049L47.585 26.5346M47.1501 28.7049C46.8571 28.9712 46.5506 29.266 46.2341 29.5841M47.1501 28.7049C47.2795 28.5873 47.4063 28.4752 47.5302 28.3692M46.2341 29.5841L46.744 27.039M39.5222 37.5303L40.2485 32.248M39.5222 37.5303C39.3219 37.7921 39.1264 38.0496 38.9366 38.3013M38.9366 38.3013L42.3953 37.6486M42.1969 34.1441L44.5974 34.6251M48.8803 27.3992C48.8508 27.4158 48.8211 27.4325 48.7911 27.4492C48.4217 27.6556 47.9964 27.97 47.5302 28.3692M48.8803 27.3992L50.8985 27.8036M48.8803 27.3992C49.2138 27.2114 49.5218 27.0289 49.8064 26.8523M47.5302 28.3692L49.055 28.6747M50.7271 26.2459L52.2364 26.0154M50.7271 26.2459C50.4516 26.4392 50.1457 26.6416 49.8064 26.8523M49.8064 26.8523L50.9137 25.315" stroke="white" stroke-width="0.220821"/>
<path d="M22.7908 42.2319C26.6566 47.4376 34.9248 44.1929 38.5757 41.9198C37.207 30.3133 22.0105 28.8862 14.5987 29.7997C19.3951 32.8455 17.9586 35.7248 22.7908 42.2319Z" fill="black"/>
<path d="M38.5757 41.9198C34.9248 44.1929 26.6566 47.4376 22.7908 42.2319C17.9586 35.7248 19.3951 32.8455 14.5987 29.7997C22.0105 28.8862 37.207 30.3133 38.5757 41.9198ZM38.5757 41.9198C38.0936 41.7509 37.5515 41.5565 36.9654 41.3413C36.5663 41.1948 36.1467 41.0385 35.7118 40.8741M17.8045 31.3302C18.0232 31.3111 19.0188 31.5001 20.8288 32.9463M32.5441 39.6339L32.0518 36.9571M32.5441 39.6339C32.4075 39.5785 32.2705 39.5226 32.1333 39.4664M32.5441 39.6339C33.3155 39.9469 34.0769 40.2472 34.8072 40.5288M32.1333 39.4664L27.3894 40.0839M32.1333 39.4664C31.6916 39.2855 31.2478 39.1007 30.8059 38.9134M29.5809 38.3847L27.4902 35.7932M29.5809 38.3847C29.056 38.154 28.5391 37.921 28.0371 37.6876M29.5809 38.3847C29.9855 38.5626 30.3949 38.7391 30.8059 38.9134M28.0371 37.6876L26.0911 38.1793M28.0371 37.6876C27.3061 37.3479 26.6066 37.0075 25.9596 36.6726M25.9596 36.6726L25.229 33.7289M25.9596 36.6726C25.7312 36.5544 25.5094 36.4369 25.2951 36.3203M24.194 35.6882L21.9889 35.8807M24.194 35.6882C24.5319 35.8946 24.9009 36.1058 25.2951 36.3203M24.194 35.6882C24.0447 35.5971 23.9016 35.5069 23.7649 35.4178M25.2951 36.3203L22.7093 36.546M34.8072 40.5288L29.5337 41.3161M34.8072 40.5288C35.1148 40.6474 35.4168 40.7626 35.7118 40.8741M35.7118 40.8741L34.1134 37.7382M30.8059 38.9134L30.593 36.4744M22.4546 34.3946C22.4789 34.4183 22.5033 34.4421 22.5277 34.4661C22.8296 34.7627 23.2508 35.0825 23.7649 35.4178M22.4546 34.3946L22.2756 32.3441M22.4546 34.3946C22.1807 34.1274 21.919 33.883 21.6695 33.6596M23.7649 35.4178L23.6297 33.8685M20.8288 32.9463L20.1835 31.5626M20.8288 32.9463C21.0918 33.1565 21.372 33.3931 21.6695 33.6596M21.6695 33.6596L19.883 33.0289" stroke="white" stroke-width="0.220821"/>
<path d="M19.0946 66.5617C18.0946 66.5617 17.3186 66.3417 16.7666 65.9017C16.2146 65.4617 15.9386 64.7457 15.9386 63.7537V59.5057C15.9386 59.1057 15.9106 58.8217 15.8546 58.6537C15.7986 58.4857 15.6946 58.3777 15.5426 58.3297C15.3986 58.2737 15.1866 58.2297 14.9066 58.1977L14.6666 58.1737V57.8737L16.4426 57.9097H16.4546L18.2306 57.8737V58.1737L17.9906 58.1977C17.7186 58.2297 17.5066 58.2737 17.3546 58.3297C17.2026 58.3777 17.0986 58.4857 17.0426 58.6537C16.9866 58.8217 16.9586 59.1057 16.9586 59.5057V63.7537C16.9586 64.5617 17.1786 65.1657 17.6186 65.5657C18.0586 65.9657 18.6266 66.1657 19.3226 66.1657C20.1306 66.1657 20.7146 65.9457 21.0746 65.5057C21.4346 65.0577 21.6146 64.4497 21.6146 63.6817V59.5057C21.6146 59.1057 21.5866 58.8217 21.5306 58.6537C21.4746 58.4857 21.3706 58.3777 21.2186 58.3297C21.0746 58.2737 20.8626 58.2297 20.5826 58.1977L20.3426 58.1737V57.8737L22.1186 57.8977L23.3066 57.8737V58.1737L23.0666 58.1977C22.7946 58.2297 22.5826 58.2737 22.4306 58.3297C22.2786 58.3777 22.1746 58.4857 22.1186 58.6537C22.0626 58.8217 22.0346 59.1057 22.0346 59.5057V63.6817C22.0346 64.6097 21.7906 65.3217 21.3026 65.8177C20.8146 66.3137 20.0786 66.5617 19.0946 66.5617ZM23.2466 66.4657V66.1657L23.4986 66.1297C23.6586 66.1057 23.8186 66.0657 23.9786 66.0097C24.1466 65.9537 24.3266 65.8457 24.5186 65.6857C24.7186 65.5177 24.9426 65.2617 25.1906 64.9177L27.1346 62.2537L25.1666 59.3017C24.9826 59.0217 24.8146 58.8137 24.6626 58.6777C24.5106 58.5337 24.3546 58.4337 24.1946 58.3777C24.0426 58.3137 23.8626 58.2617 23.6546 58.2217L23.4146 58.1737V57.8737L25.3946 57.9097L27.2546 57.8737V58.1737L26.7506 58.2337C26.3346 58.2817 26.1266 58.4257 26.1266 58.6657C26.1266 58.8657 26.2466 59.1457 26.4866 59.5057L27.8306 61.5217L29.4746 59.2297C29.6186 59.0217 29.6906 58.8377 29.6906 58.6777C29.6906 58.4217 29.5146 58.2697 29.1626 58.2217L28.7666 58.1737V57.8737L30.3506 57.9097L31.7426 57.8737V58.1737L31.4906 58.1977C31.2666 58.2217 31.0146 58.3217 30.7346 58.4977C30.4546 58.6737 30.1546 58.9857 29.8346 59.4337L28.0706 61.8697L30.1586 65.0017C30.4146 65.3777 30.6586 65.6457 30.8906 65.8057C31.1226 65.9657 31.3626 66.0657 31.6106 66.1057L31.9706 66.1657V66.4657L30.1826 66.4297L28.1306 66.4657V66.1657L28.6226 66.1177C28.9986 66.0857 29.1866 65.9337 29.1866 65.6617C29.1866 65.4617 29.0826 65.2017 28.8746 64.8817L27.3626 62.6017L25.5506 65.1217C25.4786 65.2257 25.4266 65.3257 25.3946 65.4217C25.3706 65.5177 25.3586 65.6057 25.3586 65.6857C25.3586 65.9497 25.4946 66.0937 25.7666 66.1177L26.2226 66.1657V66.4657L24.7346 66.4297L23.2466 66.4657ZM32.271 66.4657V66.1657L32.511 66.1417C32.791 66.1097 33.003 66.0697 33.147 66.0217C33.299 65.9657 33.403 65.8537 33.459 65.6857C33.515 65.5097 33.543 65.2257 33.543 64.8337V59.5057C33.543 59.1057 33.515 58.8217 33.459 58.6537C33.403 58.4857 33.299 58.3777 33.147 58.3297C33.003 58.2737 32.791 58.2297 32.511 58.1977L32.271 58.1737V57.8737L34.047 57.9097H34.719L37.575 64.8337L40.731 57.9097H41.451L43.131 57.8737V58.1737L42.891 58.1977C42.619 58.2297 42.407 58.2737 42.255 58.3297C42.103 58.3777 41.999 58.4857 41.943 58.6537C41.887 58.8217 41.859 59.1057 41.859 59.5057V64.8337C41.859 65.2257 41.887 65.5097 41.943 65.6857C41.999 65.8617 42.103 65.9737 42.255 66.0217C42.407 66.0697 42.619 66.1097 42.891 66.1417L43.131 66.1657V66.4657L41.355 66.4297L39.567 66.4657V66.1657L39.807 66.1417C40.087 66.1097 40.299 66.0697 40.443 66.0217C40.595 65.9737 40.699 65.8617 40.755 65.6857C40.811 65.5097 40.839 65.2257 40.839 64.8337V58.6657L37.287 66.4297H37.059L33.963 58.7857V65.1697C33.963 65.4257 33.995 65.6177 34.059 65.7457C34.123 65.8737 34.227 65.9657 34.371 66.0217C34.523 66.0697 34.731 66.1097 34.995 66.1417L35.235 66.1657V66.4657L33.711 66.4297L32.271 66.4657ZM48.2966 66.5617C47.4806 66.5617 46.7766 66.3737 46.1846 65.9977C45.6006 65.6217 45.1486 65.1057 44.8286 64.4497C44.5166 63.7857 44.3606 63.0257 44.3606 62.1697C44.3606 61.5297 44.4646 60.9417 44.6726 60.4057C44.8806 59.8697 45.1686 59.4017 45.5366 59.0017C45.9046 58.6017 46.3286 58.2937 46.8086 58.0777C47.2966 57.8537 47.8166 57.7417 48.3686 57.7417C48.8566 57.7417 49.2566 57.7977 49.5686 57.9097C49.8886 58.0137 50.1286 58.1057 50.2886 58.1857C50.3926 58.2337 50.4886 58.2777 50.5766 58.3177C50.6646 58.3497 50.7246 58.3657 50.7566 58.3657C50.8446 58.3657 50.9166 58.3337 50.9726 58.2697C51.0286 58.1977 51.0646 58.0777 51.0806 57.9097H51.3806L51.3566 59.3137L51.3806 60.7177H51.0806C50.9606 59.8857 50.6726 59.2417 50.2166 58.7857C49.7606 58.3297 49.1566 58.1017 48.4046 58.1017C47.8766 58.1017 47.4326 58.2097 47.0726 58.4257C46.7126 58.6337 46.4246 58.9257 46.2086 59.3017C45.9926 59.6697 45.8326 60.1017 45.7286 60.5977C45.6326 61.0857 45.5846 61.6097 45.5846 62.1697C45.5846 63.0097 45.6726 63.7297 45.8486 64.3297C46.0326 64.9297 46.3286 65.3937 46.7366 65.7217C47.1526 66.0417 47.7086 66.2017 48.4046 66.2017C48.9246 66.2017 49.3766 66.0817 49.7606 65.8417C50.1446 65.6017 50.4526 65.2817 50.6846 64.8817C50.9246 64.4817 51.0686 64.0417 51.1166 63.5617H51.4046L51.3806 65.0257L51.4166 66.4297H51.1286L51.0926 66.2977C51.0606 66.1937 51.0206 66.0977 50.9726 66.0097C50.9326 65.9137 50.8606 65.8657 50.7566 65.8657C50.7006 65.8657 50.6326 65.8817 50.5526 65.9137C50.4806 65.9457 50.3966 65.9857 50.3006 66.0337C50.0926 66.1377 49.8206 66.2537 49.4846 66.3817C49.1486 66.5017 48.7526 66.5617 48.2966 66.5617ZM52.0733 66.4657V66.1657L52.1813 66.1537C52.4613 66.1137 52.6893 66.0577 52.8653 65.9857C53.0493 65.9137 53.2053 65.7977 53.3333 65.6377C53.4693 65.4697 53.5973 65.2417 53.7173 64.9537L56.6213 57.9097H57.0293L59.8613 64.9537C60.0213 65.3457 60.1933 65.6337 60.3773 65.8177C60.5613 66.0017 60.8133 66.1097 61.1333 66.1417L61.3733 66.1657V66.4657L59.8853 66.4297L57.9653 66.4657V66.1657L58.2053 66.1417C58.4853 66.1097 58.6853 66.0497 58.8053 65.9617C58.9253 65.8737 58.9853 65.7497 58.9853 65.5897C58.9853 65.4297 58.9293 65.2137 58.8173 64.9417L58.1933 63.3817H54.8093L54.1613 64.9417C54.1053 65.0857 54.0573 65.2177 54.0173 65.3377C53.9773 65.4497 53.9573 65.5497 53.9573 65.6377C53.9573 65.7897 54.0213 65.9057 54.1493 65.9857C54.2853 66.0657 54.5053 66.1177 54.8093 66.1417L55.0493 66.1657V66.4657L53.5253 66.4297L52.0733 66.4657ZM54.9653 62.9977H58.0493L56.5373 59.1937L54.9653 62.9977Z" fill="white"/>
<path d="M10.1752 82.4657V82.1657L10.4152 82.1417C10.6952 82.1097 10.9072 82.0697 11.0512 82.0217C11.2032 81.9657 11.3072 81.8537 11.3632 81.6857C11.4192 81.5097 11.4472 81.2257 11.4472 80.8337V75.5057C11.4472 75.1057 11.4192 74.8217 11.3632 74.6537C11.3072 74.4857 11.2032 74.3777 11.0512 74.3297C10.9072 74.2737 10.6952 74.2297 10.4152 74.1977L10.1752 74.1737V73.8737L11.9512 73.9097H12.6232L15.4792 80.8337L18.6352 73.9097H19.3552L21.0352 73.8737V74.1737L20.7952 74.1977C20.5232 74.2297 20.3112 74.2737 20.1592 74.3297C20.0072 74.3777 19.9032 74.4857 19.8472 74.6537C19.7912 74.8217 19.7632 75.1057 19.7632 75.5057V80.8337C19.7632 81.2257 19.7912 81.5097 19.8472 81.6857C19.9032 81.8617 20.0072 81.9737 20.1592 82.0217C20.3112 82.0697 20.5232 82.1097 20.7952 82.1417L21.0352 82.1657V82.4657L19.2592 82.4297L17.4712 82.4657V82.1657L17.7112 82.1417C17.9912 82.1097 18.2032 82.0697 18.3472 82.0217C18.4992 81.9737 18.6032 81.8617 18.6592 81.6857C18.7152 81.5097 18.7432 81.2257 18.7432 80.8337V74.6657L15.1912 82.4297H14.9632L11.8672 74.7857V81.1697C11.8672 81.4257 11.8992 81.6177 11.9632 81.7457C12.0272 81.8737 12.1312 81.9657 12.2752 82.0217C12.4272 82.0697 12.6352 82.1097 12.8992 82.1417L13.1392 82.1657V82.4657L11.6152 82.4297L10.1752 82.4657ZM26.2489 82.5617C25.2489 82.5617 24.4729 82.3417 23.9209 81.9017C23.3689 81.4617 23.0929 80.7457 23.0929 79.7537V75.5057C23.0929 75.1057 23.0649 74.8217 23.0089 74.6537C22.9529 74.4857 22.8489 74.3777 22.6969 74.3297C22.5529 74.2737 22.3409 74.2297 22.0609 74.1977L21.8209 74.1737V73.8737L23.5969 73.9097H23.6089L25.3849 73.8737V74.1737L25.1449 74.1977C24.8729 74.2297 24.6609 74.2737 24.5089 74.3297C24.3569 74.3777 24.2529 74.4857 24.1969 74.6537C24.1409 74.8217 24.1129 75.1057 24.1129 75.5057V79.7537C24.1129 80.5617 24.3329 81.1657 24.7729 81.5657C25.2129 81.9657 25.7809 82.1657 26.4769 82.1657C27.2849 82.1657 27.8689 81.9457 28.2289 81.5057C28.5889 81.0577 28.7689 80.4497 28.7689 79.6817V75.5057C28.7689 75.1057 28.7409 74.8217 28.6849 74.6537C28.6289 74.4857 28.5249 74.3777 28.3729 74.3297C28.2289 74.2737 28.0169 74.2297 27.7369 74.1977L27.4969 74.1737V73.8737L29.2729 73.8977L30.4609 73.8737V74.1737L30.2209 74.1977C29.9489 74.2297 29.7369 74.2737 29.5849 74.3297C29.4329 74.3777 29.3289 74.4857 29.2729 74.6537C29.2169 74.8217 29.1889 75.1057 29.1889 75.5057V79.6817C29.1889 80.6097 28.9449 81.3217 28.4569 81.8177C27.9689 82.3137 27.2329 82.5617 26.2489 82.5617ZM34.2289 82.5617C33.9089 82.5617 33.6169 82.5097 33.3529 82.4057C33.0969 82.3017 32.8649 82.1977 32.6569 82.0937C32.4809 81.9977 32.3329 81.9257 32.2129 81.8777C32.1009 81.8297 32.0009 81.8057 31.9129 81.8057C31.8009 81.8057 31.7209 81.8537 31.6729 81.9497C31.6329 82.0377 31.6009 82.1377 31.5769 82.2497L31.5409 82.4297H31.2409L31.3009 81.0137L31.2649 79.4657H31.5649L31.6969 80.0297C31.7849 80.3817 31.9409 80.7257 32.1649 81.0617C32.3969 81.3977 32.6849 81.6737 33.0289 81.8897C33.3809 82.1057 33.7809 82.2137 34.2289 82.2137C34.4769 82.2137 34.7129 82.1617 34.9369 82.0577C35.1689 81.9457 35.3569 81.7777 35.5009 81.5537C35.6529 81.3297 35.7289 81.0377 35.7289 80.6777C35.7289 80.1417 35.5529 79.7097 35.2009 79.3817C34.8569 79.0537 34.3769 78.7417 33.7609 78.4457L33.2569 78.2057C32.6569 77.9177 32.2089 77.6017 31.9129 77.2577C31.6249 76.9057 31.4809 76.4577 31.4809 75.9137C31.4809 75.4897 31.5849 75.1137 31.7929 74.7857C32.0009 74.4577 32.2849 74.2017 32.6449 74.0177C33.0129 73.8337 33.4329 73.7417 33.9049 73.7417C34.2329 73.7417 34.5089 73.7857 34.7329 73.8737C34.9569 73.9617 35.1329 74.0377 35.2609 74.1017C35.4689 74.2057 35.6329 74.2577 35.7529 74.2577C35.8809 74.2577 35.9569 74.1337 35.9809 73.8857H36.2809L36.2449 75.0377L36.2689 76.2017H35.9689C35.9209 75.7537 35.7969 75.3737 35.5969 75.0617C35.3969 74.7417 35.1529 74.4977 34.8649 74.3297C34.5849 74.1617 34.2849 74.0777 33.9649 74.0777C33.4929 74.0777 33.1089 74.2137 32.8129 74.4857C32.5249 74.7577 32.3809 75.1057 32.3809 75.5297C32.3809 75.9857 32.5289 76.3457 32.8249 76.6097C33.1209 76.8657 33.5049 77.1097 33.9769 77.3417L34.4689 77.5817C34.9089 77.7977 35.2849 78.0217 35.5969 78.2537C35.9169 78.4777 36.1609 78.7417 36.3289 79.0457C36.5049 79.3497 36.5929 79.7297 36.5929 80.1857C36.5929 80.6577 36.4849 81.0737 36.2689 81.4337C36.0609 81.7937 35.7769 82.0737 35.4169 82.2737C35.0649 82.4657 34.6689 82.5617 34.2289 82.5617ZM37.7274 82.4657V82.1657L37.9674 82.1417C38.2474 82.1097 38.4594 82.0697 38.6034 82.0217C38.7554 81.9657 38.8594 81.8537 38.9154 81.6857C38.9714 81.5097 38.9994 81.2257 38.9994 80.8337V75.5057C38.9994 75.1057 38.9714 74.8217 38.9154 74.6537C38.8594 74.4857 38.7554 74.3777 38.6034 74.3297C38.4594 74.2737 38.2474 74.2297 37.9674 74.1977L37.7274 74.1737V73.8737L39.5034 73.9097H44.1594L44.1834 74.7737L44.2794 75.8777H43.9914C43.9354 75.5177 43.8594 75.2297 43.7634 75.0137C43.6754 74.7977 43.5474 74.6377 43.3794 74.5337C43.2114 74.4217 42.9834 74.3497 42.6954 74.3177C42.4154 74.2777 42.0514 74.2577 41.6034 74.2577H40.0194V77.7737H41.3634C41.5234 77.7737 41.6634 77.7377 41.7834 77.6657C41.9034 77.5857 41.9994 77.4417 42.0714 77.2337C42.1514 77.0257 42.1994 76.7257 42.2154 76.3337H42.5154L42.4794 77.9417L42.5154 79.7177H42.2154C42.2154 79.1337 42.1434 78.7217 41.9994 78.4817C41.8554 78.2337 41.6434 78.1097 41.3634 78.1097H40.0194V81.1457C40.0194 81.5297 40.1034 81.7857 40.2714 81.9137C40.4394 82.0337 40.7514 82.0937 41.2074 82.0937H42.3234C42.7874 82.0937 43.1474 82.0417 43.4034 81.9377C43.6674 81.8337 43.8634 81.6257 43.9914 81.3137C44.1194 80.9937 44.2074 80.5257 44.2554 79.9097H44.5554L44.4714 81.3497L44.4354 82.4297H39.5034L37.7274 82.4657ZM49.7684 82.5617C48.7684 82.5617 47.9924 82.3417 47.4404 81.9017C46.8884 81.4617 46.6124 80.7457 46.6124 79.7537V75.5057C46.6124 75.1057 46.5844 74.8217 46.5284 74.6537C46.4724 74.4857 46.3684 74.3777 46.2164 74.3297C46.0724 74.2737 45.8604 74.2297 45.5804 74.1977L45.3404 74.1737V73.8737L47.1164 73.9097H47.1284L48.9044 73.8737V74.1737L48.6644 74.1977C48.3924 74.2297 48.1804 74.2737 48.0284 74.3297C47.8764 74.3777 47.7724 74.4857 47.7164 74.6537C47.6604 74.8217 47.6324 75.1057 47.6324 75.5057V79.7537C47.6324 80.5617 47.8524 81.1657 48.2924 81.5657C48.7324 81.9657 49.3004 82.1657 49.9964 82.1657C50.8044 82.1657 51.3884 81.9457 51.7484 81.5057C52.1084 81.0577 52.2884 80.4497 52.2884 79.6817V75.5057C52.2884 75.1057 52.2604 74.8217 52.2044 74.6537C52.1484 74.4857 52.0444 74.3777 51.8924 74.3297C51.7484 74.2737 51.5364 74.2297 51.2564 74.1977L51.0164 74.1737V73.8737L52.7924 73.8977L53.9804 73.8737V74.1737L53.7404 74.1977C53.4684 74.2297 53.2564 74.2737 53.1044 74.3297C52.9524 74.3777 52.8484 74.4857 52.7924 74.6537C52.7364 74.8217 52.7084 75.1057 52.7084 75.5057V79.6817C52.7084 80.6097 52.4644 81.3217 51.9764 81.8177C51.4884 82.3137 50.7524 82.5617 49.7684 82.5617ZM54.4604 82.4657V82.1657L54.7004 82.1417C54.9804 82.1097 55.1924 82.0697 55.3364 82.0217C55.4884 81.9657 55.5924 81.8537 55.6484 81.6857C55.7044 81.5097 55.7324 81.2257 55.7324 80.8337V75.5057C55.7324 75.1057 55.7044 74.8217 55.6484 74.6537C55.5924 74.4857 55.4884 74.3777 55.3364 74.3297C55.1924 74.2737 54.9804 74.2297 54.7004 74.1977L54.4604 74.1737V73.8737L56.2364 73.9097H56.9084L59.7644 80.8337L62.9204 73.9097H63.6404L65.3204 73.8737V74.1737L65.0804 74.1977C64.8084 74.2297 64.5964 74.2737 64.4444 74.3297C64.2924 74.3777 64.1884 74.4857 64.1324 74.6537C64.0764 74.8217 64.0484 75.1057 64.0484 75.5057V80.8337C64.0484 81.2257 64.0764 81.5097 64.1324 81.6857C64.1884 81.8617 64.2924 81.9737 64.4444 82.0217C64.5964 82.0697 64.8084 82.1097 65.0804 82.1417L65.3204 82.1657V82.4657L63.5444 82.4297L61.7564 82.4657V82.1657L61.9964 82.1417C62.2764 82.1097 62.4884 82.0697 62.6324 82.0217C62.7844 81.9737 62.8884 81.8617 62.9444 81.6857C63.0004 81.5097 63.0284 81.2257 63.0284 80.8337V74.6657L59.4764 82.4297H59.2484L56.1524 74.7857V81.1697C56.1524 81.4257 56.1844 81.6177 56.2484 81.7457C56.3124 81.8737 56.4164 81.9657 56.5604 82.0217C56.7124 82.0697 56.9204 82.1097 57.1844 82.1417L57.4244 82.1657V82.4657L55.9004 82.4297L54.4604 82.4657Z" fill="white"/>
</g>
<defs>
<filter id="filter0_b_2_100" x="-10" y="-9.31592" width="95.5613" height="115.746" filterUnits="userSpaceOnUse" color-interpolation-filters="sRGB">
<feFlood flood-opacity="0" result="BackgroundImageFix"/>
<feGaussianBlur in="BackgroundImage" stdDeviation="5"/>
<feComposite in2="SourceAlpha" operator="in" result="effect1_backgroundBlur_2_100"/>
<feBlend mode="normal" in="SourceGraphic" in2="effect1_backgroundBlur_2_100" result="shape"/>
</filter>
</defs>
</svg>
