<svg width="58" height="76" viewBox="0 0 58 76" fill="none" xmlns="http://www.w3.org/2000/svg">
<path d="M21.1043 17.7987C19.2147 24.1983 27.117 29.8587 31.3043 31.889C40.0832 24.1727 31.6985 9.6431 26.2719 3.45518C26.7626 9.48995 23.4663 9.79921 21.1043 17.7987Z" fill="black"/>
<path d="M31.3043 31.889C27.117 29.8587 19.2147 24.1983 21.1043 17.7987C23.4663 9.79921 26.7626 9.48995 26.2719 3.45518C31.6985 9.6431 40.0832 24.1727 31.3043 31.889ZM31.3043 31.889C31.141 31.3591 30.9611 30.7607 30.7707 30.1108C30.6411 29.6683 30.5066 29.202 30.3693 28.7171M27.0196 7.2067C27.1732 7.39367 27.6432 8.39884 27.5818 10.8419M29.4046 25.1622L31.3181 23.223M29.4046 25.1622C29.3646 25.0078 29.3247 24.8528 29.285 24.6975M29.4046 25.1622C29.6305 26.0341 29.8605 26.8898 30.0865 27.707M29.285 24.6975L25.7845 20.7552M29.285 24.6975C29.1572 24.1973 29.0311 23.6931 28.9085 23.1892M28.5761 21.7871L29.4121 18.451M28.5761 21.7871C28.4372 21.184 28.3053 20.5868 28.1829 20.0028M28.5761 21.7871C28.6832 22.252 28.7944 22.7205 28.9085 23.1892M28.1829 20.0028L26.549 18.5187M28.1829 20.0028C28.0048 19.1526 27.8469 18.3304 27.7177 17.5587M27.7177 17.5587L29.7028 15.2552M27.7177 17.5587C27.6721 17.2864 27.63 17.0203 27.5919 16.7616M27.4235 15.4136L25.8749 13.5284M27.4235 15.4136C27.4649 15.8342 27.5217 16.2856 27.5919 16.7616M27.4235 15.4136C27.4052 15.2279 27.3899 15.0481 27.3779 14.8749M27.5919 16.7616L25.7759 14.5508M30.0865 27.707L26.1115 23.3809M30.0865 27.707C30.1817 28.0511 30.2761 28.3884 30.3693 28.7171M30.3693 28.7171L31.9675 25.5221M28.9085 23.1892L30.8003 21.6352M27.4026 13.1196C27.3983 13.1548 27.3938 13.1901 27.3892 13.2256C27.333 13.664 27.3327 14.2232 27.3779 14.8749M27.4026 13.1196L28.9931 11.8132M27.4026 13.1196C27.4521 12.7229 27.4903 12.35 27.5188 11.9998M27.3779 14.8749L28.5796 13.8878M27.5818 10.8419L28.3248 9.48631M27.5818 10.8419C27.5729 11.1969 27.5527 11.5822 27.5188 11.9998M27.5188 11.9998L26.9176 10.0333" stroke="white" stroke-width="0.220821"/>
<path d="M38.6214 18.4565C32.1616 17.8959 29.1048 26.2355 28.3839 30.4753C37.9769 37.1505 49.1257 26.7256 53.3588 20.5733C47.8979 22.142 46.6962 19.1571 38.6214 18.4565Z" fill="black"/>
<path d="M28.3839 30.4753C29.1048 26.2355 32.1616 17.8959 38.6214 18.4565C46.6962 19.1571 47.8979 22.142 53.3588 20.5733C49.1257 26.7256 37.9769 37.1505 28.3839 30.4753ZM28.3839 30.4753C28.8301 30.2266 29.3351 29.9499 29.885 29.6541C30.2594 29.4526 30.6546 29.2423 31.0662 29.0259M50.0868 21.957C49.9561 22.1333 49.1542 22.7529 46.8713 23.148M34.0956 27.4783L36.4251 28.8856M34.0956 27.4783C34.2277 27.4128 34.3603 27.3473 34.4934 27.282M34.0956 27.4783C33.3496 27.8479 32.6198 28.2185 31.9246 28.5781M34.4934 27.282L37.1783 23.3225M34.4934 27.282C34.9218 27.0715 35.3544 26.862 35.7878 26.6555M36.996 26.0896L40.3221 26.2442M36.996 26.0896C37.5168 25.8499 38.0341 25.6177 38.5417 25.3967M36.996 26.0896C36.5944 26.2744 36.1908 26.4636 35.7878 26.6555M38.5417 25.3967L39.4647 23.6144M38.5417 25.3967C39.2808 25.0751 39.9996 24.7774 40.6794 24.5155M40.6794 24.5155L43.3668 25.9216M40.6794 24.5155C40.9193 24.423 41.1544 24.335 41.3838 24.252M42.5872 23.8473L43.906 22.0695M42.5872 23.8473C42.2087 23.9633 41.8058 24.0992 41.3838 24.252M42.5872 23.8473C42.7545 23.7961 42.9169 23.7488 43.0742 23.7056M41.3838 24.252L42.9302 22.1673M31.9246 28.5781L34.8338 24.1097M31.9246 28.5781C31.6319 28.7296 31.3453 28.8791 31.0662 29.0259M31.0662 29.0259L34.4731 29.9101M35.7878 26.6555L37.7541 28.1141M44.7091 23.4039C44.6753 23.4063 44.6413 23.4088 44.6071 23.4111C44.1849 23.4402 43.6662 23.5433 43.0742 23.7056M44.7091 23.4039L46.3622 24.6301M44.7091 23.4039C45.0907 23.3762 45.4472 23.3425 45.7799 23.304M43.0742 23.7056L44.3233 24.6322M46.8713 23.148L48.3348 23.583M46.8713 23.148C46.5396 23.2054 46.1766 23.2581 45.7799 23.304M45.7799 23.304L47.4369 22.3855" stroke="white" stroke-width="0.220821"/>
<path d="M16.0242 25.1929C17.3015 31.5499 26.164 32.1401 30.4356 31.6405C34.146 20.5582 21.0083 12.7882 13.9144 10.4545C16.9545 15.2545 14.4275 17.2465 16.0242 25.1929Z" fill="black"/>
<path d="M30.4356 31.6405C26.164 32.1401 17.3015 31.5499 16.0242 25.1929C14.4275 17.2465 16.9545 15.2545 13.9144 10.4545C21.0083 12.7882 34.146 20.5582 30.4356 31.6405ZM30.4356 31.6405C30.0715 31.2822 29.664 30.8752 29.2256 30.4307C28.927 30.1279 28.6141 29.8077 28.2908 29.4736M16.1618 13.2058C16.3678 13.2817 17.1877 13.8771 18.2084 15.957M25.9543 27.0012L26.6503 24.37M25.9543 27.0012C25.8543 26.8928 25.7542 26.7839 25.6541 26.6745M25.9543 27.0012C26.5186 27.6132 27.0793 28.2095 27.6199 28.7756M25.6541 26.6745L21.0996 25.2105M25.6541 26.6745C25.3317 26.3225 25.009 25.9662 24.6892 25.6083M23.8065 24.6079L23.0202 21.3723M23.8065 24.6079C23.4301 24.1754 23.0619 23.7442 22.7072 23.3191M23.8065 24.6079C24.0967 24.9413 24.3917 25.2755 24.6892 25.6083M22.7072 23.3191L20.7373 22.9342M22.7072 23.3191C22.1909 22.7002 21.7032 22.094 21.2607 21.5152M21.2607 21.5152L21.855 18.5409M21.2607 21.5152C21.1046 21.3109 20.9541 21.11 20.8099 20.9132M20.0834 19.872L18.0066 19.106M20.0834 19.872C20.301 20.2027 20.5447 20.5511 20.8099 20.9132M20.0834 19.872C19.9872 19.7259 19.8962 19.5833 19.8106 19.4444M20.8099 20.9132L18.3747 20.0149M27.6199 28.7756L22.514 27.2393M27.6199 28.7756C27.8475 29.0139 28.0715 29.247 28.2908 29.4736M28.2908 29.4736L28.182 25.9555M24.6892 25.6083L25.5364 23.3113M19.0616 17.9603C19.0734 17.992 19.0853 18.024 19.0972 18.0561C19.2438 18.4531 19.4885 18.9219 19.8106 19.4444M19.0616 17.9603L19.7739 16.0292M19.0616 17.9603C18.9277 17.6018 18.7952 17.2691 18.6648 16.9606M19.8106 19.4444L20.3488 17.9854M18.2084 15.957L18.2147 14.4303M18.2084 15.957C18.3567 16.2592 18.5093 16.5928 18.6648 16.9606M18.6648 16.9606L17.3177 15.6285" stroke="white" stroke-width="0.220821"/>
<path d="M32.823 15.0131C26.7407 17.2603 27.5312 26.1071 28.6868 30.2497C40.2102 32.1977 45.8502 18.0145 47.0562 10.6446C42.7854 14.3919 40.4258 12.2042 32.823 15.0131Z" fill="black"/>
<path d="M28.6868 30.2497C27.5312 26.1071 26.7407 17.2603 32.823 15.0131C40.4258 12.2042 42.7854 14.3919 47.0562 10.6446C45.8502 18.0145 40.2102 32.1977 28.6868 30.2497ZM28.6868 30.2497C28.9844 29.8345 29.3233 29.3689 29.6945 28.8668C29.9473 28.5249 30.2151 28.1662 30.4951 27.795M44.6865 13.2912C44.6434 13.5065 44.1823 14.4088 42.2857 15.7395M32.5755 25.1035L35.2828 25.3833M32.5755 25.1035C32.6671 24.9879 32.7592 24.8721 32.8517 24.7563M32.5755 25.1035C32.0584 25.7559 31.5562 26.4022 31.0807 27.024M32.8517 24.7563L33.5922 20.03M32.8517 24.7563C33.1495 24.3832 33.4515 24.0092 33.7555 23.6378M34.607 22.6107L37.6817 21.3325M34.607 22.6107C34.976 22.1718 35.3449 21.7412 35.7099 21.325M34.607 22.6107C34.3226 22.949 34.0382 23.2923 33.7555 23.6378M35.7099 21.325L35.7848 19.3192M35.7099 21.325C36.2413 20.7189 36.7646 20.1432 37.2678 19.6164M37.2678 19.6164L40.2982 19.7425M37.2678 19.6164C37.4454 19.4305 37.6205 19.2506 37.7927 19.0777M38.7087 18.1986L39.1436 16.0282M38.7087 18.1986C38.4157 18.4649 38.1092 18.7596 37.7927 19.0777M38.7087 18.1986C38.8381 18.081 38.9649 17.9689 39.0888 17.8628M37.7927 19.0777L38.3026 16.5327M31.0807 27.024L31.8071 21.7417M31.0807 27.024C30.8805 27.2858 30.685 27.5432 30.4951 27.795M30.4951 27.795L33.9539 27.1423M33.7555 23.6378L36.156 24.1188M40.4389 16.8928C40.4094 16.9095 40.3797 16.9261 40.3497 16.9429C39.9803 17.1492 39.555 17.4636 39.0888 17.8628M40.4389 16.8928L42.4571 17.2972M40.4389 16.8928C40.7724 16.705 41.0804 16.5226 41.365 16.3459M39.0888 17.8628L40.6136 18.1684M42.2857 15.7395L43.795 15.5091M42.2857 15.7395C42.0102 15.9329 41.7043 16.1353 41.365 16.3459M41.365 16.3459L42.4723 14.8086" stroke="white" stroke-width="0.220821"/>
<path d="M14.3494 31.7256C18.2152 36.9313 26.4834 33.6866 30.1343 31.4135C28.7656 19.807 13.5691 18.3798 6.15725 19.2934C10.9537 22.3392 9.51719 25.2184 14.3494 31.7256Z" fill="black"/>
<path d="M30.1343 31.4135C26.4834 33.6866 18.2152 36.9313 14.3494 31.7256C9.51719 25.2184 10.9537 22.3392 6.15725 19.2934C13.5691 18.3798 28.7656 19.807 30.1343 31.4135ZM30.1343 31.4135C29.6522 31.2446 29.1101 31.0502 28.524 30.835C28.1248 30.6884 27.7053 30.5322 27.2703 30.3678M9.36313 20.8239C9.58182 20.8048 10.5774 20.9938 12.3874 22.44M24.1027 29.1275L23.6104 26.4508M24.1027 29.1275C23.966 29.0721 23.8291 29.0163 23.6919 28.9601M24.1027 29.1275C24.8741 29.4405 25.6355 29.7408 26.3658 30.0224M23.6919 28.9601L18.948 29.5776M23.6919 28.9601C23.2502 28.7791 22.8064 28.5944 22.3645 28.407M21.1395 27.8784L19.0488 25.2869M21.1395 27.8784C20.6146 27.6477 20.0977 27.4146 19.5957 27.1813M21.1395 27.8784C21.5441 28.0563 21.9535 28.2328 22.3645 28.407M19.5957 27.1813L17.6497 27.673M19.5957 27.1813C18.8647 26.8416 18.1652 26.5012 17.5182 26.1663M17.5182 26.1663L16.7876 23.2225M17.5182 26.1663C17.2898 26.048 17.068 25.9305 16.8537 25.8139M15.7526 25.1819L13.5475 25.3744M15.7526 25.1819C16.0905 25.3883 16.4595 25.5995 16.8537 25.8139M15.7526 25.1819C15.6033 25.0907 15.4602 25.0005 15.3235 24.9114M16.8537 25.8139L14.2679 26.0397M26.3658 30.0224L21.0923 30.8097M26.3658 30.0224C26.6734 30.141 26.9754 30.2563 27.2703 30.3678M27.2703 30.3678L25.672 27.2319M22.3645 28.407L22.1515 25.968M14.0132 23.8883C14.0375 23.9119 14.0619 23.9358 14.0863 23.9598C14.3882 24.2564 14.8094 24.5761 15.3235 24.9114M14.0132 23.8883L13.8342 21.8378M14.0132 23.8883C13.7393 23.621 13.4776 23.3767 13.2281 23.1532M15.3235 24.9114L15.1883 23.3622M12.3874 22.44L11.7421 21.0563M12.3874 22.44C12.6504 22.6501 12.9306 22.8868 13.2281 23.1532M13.2281 23.1532L11.4416 22.5225" stroke="white" stroke-width="0.220821"/>
<path d="M11.7605 56.0553C10.7605 56.0553 9.98447 55.8353 9.43247 55.3953C8.88047 54.9553 8.60447 54.2393 8.60447 53.2473V48.9993C8.60447 48.5993 8.57647 48.3153 8.52047 48.1473C8.46447 47.9793 8.36047 47.8713 8.20847 47.8233C8.06447 47.7673 7.85247 47.7233 7.57247 47.6913L7.33247 47.6673V47.3673L9.10847 47.4033H9.12047L10.8965 47.3673V47.6673L10.6565 47.6913C10.3845 47.7233 10.1725 47.7673 10.0205 47.8233C9.86847 47.8713 9.76447 47.9793 9.70847 48.1473C9.65247 48.3153 9.62447 48.5993 9.62447 48.9993V53.2473C9.62447 54.0553 9.84447 54.6593 10.2845 55.0593C10.7245 55.4593 11.2925 55.6593 11.9885 55.6593C12.7965 55.6593 13.3805 55.4393 13.7405 54.9993C14.1005 54.5513 14.2805 53.9433 14.2805 53.1753V48.9993C14.2805 48.5993 14.2525 48.3153 14.1965 48.1473C14.1405 47.9793 14.0365 47.8713 13.8845 47.8233C13.7405 47.7673 13.5285 47.7233 13.2485 47.6913L13.0085 47.6673V47.3673L14.7845 47.3913L15.9725 47.3673V47.6673L15.7325 47.6913C15.4605 47.7233 15.2485 47.7673 15.0965 47.8233C14.9445 47.8713 14.8405 47.9793 14.7845 48.1473C14.7285 48.3153 14.7005 48.5993 14.7005 48.9993V53.1753C14.7005 54.1033 14.4565 54.8153 13.9685 55.3113C13.4805 55.8073 12.7445 56.0553 11.7605 56.0553ZM15.9125 55.9593V55.6593L16.1645 55.6233C16.3245 55.5993 16.4845 55.5593 16.6445 55.5033C16.8125 55.4473 16.9925 55.3393 17.1845 55.1793C17.3845 55.0113 17.6085 54.7553 17.8565 54.4113L19.8005 51.7473L17.8325 48.7953C17.6485 48.5153 17.4805 48.3073 17.3285 48.1713C17.1765 48.0273 17.0205 47.9273 16.8605 47.8713C16.7085 47.8073 16.5285 47.7553 16.3205 47.7153L16.0805 47.6673V47.3673L18.0605 47.4033L19.9205 47.3673V47.6673L19.4165 47.7273C19.0005 47.7753 18.7925 47.9193 18.7925 48.1593C18.7925 48.3593 18.9125 48.6393 19.1525 48.9993L20.4965 51.0153L22.1405 48.7233C22.2845 48.5153 22.3565 48.3313 22.3565 48.1713C22.3565 47.9153 22.1805 47.7633 21.8285 47.7153L21.4325 47.6673V47.3673L23.0165 47.4033L24.4085 47.3673V47.6673L24.1565 47.6913C23.9325 47.7153 23.6805 47.8153 23.4005 47.9913C23.1205 48.1673 22.8205 48.4793 22.5005 48.9273L20.7365 51.3633L22.8245 54.4953C23.0805 54.8713 23.3245 55.1393 23.5565 55.2993C23.7885 55.4593 24.0285 55.5593 24.2765 55.5993L24.6365 55.6593V55.9593L22.8485 55.9233L20.7965 55.9593V55.6593L21.2885 55.6113C21.6645 55.5793 21.8525 55.4273 21.8525 55.1553C21.8525 54.9553 21.7485 54.6953 21.5405 54.3753L20.0285 52.0953L18.2165 54.6153C18.1445 54.7193 18.0925 54.8193 18.0605 54.9153C18.0365 55.0113 18.0245 55.0993 18.0245 55.1793C18.0245 55.4433 18.1605 55.5873 18.4325 55.6113L18.8885 55.6593V55.9593L17.4005 55.9233L15.9125 55.9593ZM24.9368 55.9593V55.6593L25.1768 55.6353C25.4568 55.6033 25.6688 55.5633 25.8128 55.5153C25.9648 55.4593 26.0688 55.3473 26.1248 55.1793C26.1808 55.0033 26.2088 54.7193 26.2088 54.3273V48.9993C26.2088 48.5993 26.1808 48.3153 26.1248 48.1473C26.0688 47.9793 25.9648 47.8713 25.8128 47.8233C25.6688 47.7673 25.4568 47.7233 25.1768 47.6913L24.9368 47.6673V47.3673L26.7128 47.4033H27.3848L30.2408 54.3273L33.3968 47.4033H34.1168L35.7968 47.3673V47.6673L35.5568 47.6913C35.2848 47.7233 35.0728 47.7673 34.9208 47.8233C34.7688 47.8713 34.6648 47.9793 34.6088 48.1473C34.5528 48.3153 34.5248 48.5993 34.5248 48.9993V54.3273C34.5248 54.7193 34.5528 55.0033 34.6088 55.1793C34.6648 55.3553 34.7688 55.4673 34.9208 55.5153C35.0728 55.5633 35.2848 55.6033 35.5568 55.6353L35.7968 55.6593V55.9593L34.0208 55.9233L32.2328 55.9593V55.6593L32.4728 55.6353C32.7528 55.6033 32.9648 55.5633 33.1088 55.5153C33.2608 55.4673 33.3648 55.3553 33.4208 55.1793C33.4768 55.0033 33.5048 54.7193 33.5048 54.3273V48.1593L29.9528 55.9233H29.7248L26.6288 48.2793V54.6633C26.6288 54.9193 26.6608 55.1113 26.7248 55.2393C26.7888 55.3673 26.8928 55.4593 27.0368 55.5153C27.1888 55.5633 27.3968 55.6033 27.6608 55.6353L27.9008 55.6593V55.9593L26.3768 55.9233L24.9368 55.9593ZM40.9625 56.0553C40.1465 56.0553 39.4425 55.8673 38.8505 55.4913C38.2665 55.1153 37.8145 54.5993 37.4945 53.9433C37.1825 53.2793 37.0265 52.5193 37.0265 51.6633C37.0265 51.0233 37.1305 50.4353 37.3385 49.8993C37.5465 49.3633 37.8345 48.8953 38.2025 48.4953C38.5705 48.0953 38.9945 47.7873 39.4745 47.5713C39.9625 47.3473 40.4825 47.2353 41.0345 47.2353C41.5225 47.2353 41.9225 47.2913 42.2345 47.4033C42.5545 47.5073 42.7945 47.5993 42.9545 47.6793C43.0585 47.7273 43.1545 47.7713 43.2425 47.8113C43.3305 47.8433 43.3905 47.8593 43.4225 47.8593C43.5105 47.8593 43.5825 47.8273 43.6385 47.7633C43.6945 47.6913 43.7305 47.5713 43.7465 47.4033H44.0465L44.0225 48.8073L44.0465 50.2113H43.7465C43.6265 49.3793 43.3385 48.7353 42.8825 48.2793C42.4265 47.8233 41.8225 47.5953 41.0705 47.5953C40.5425 47.5953 40.0985 47.7033 39.7385 47.9193C39.3785 48.1273 39.0905 48.4193 38.8745 48.7953C38.6585 49.1633 38.4985 49.5953 38.3945 50.0913C38.2985 50.5793 38.2505 51.1033 38.2505 51.6633C38.2505 52.5033 38.3385 53.2233 38.5145 53.8233C38.6985 54.4233 38.9945 54.8873 39.4025 55.2153C39.8185 55.5353 40.3745 55.6953 41.0705 55.6953C41.5905 55.6953 42.0425 55.5753 42.4265 55.3353C42.8105 55.0953 43.1185 54.7753 43.3505 54.3753C43.5905 53.9753 43.7345 53.5353 43.7825 53.0553H44.0705L44.0465 54.5193L44.0825 55.9233H43.7945L43.7585 55.7913C43.7265 55.6873 43.6865 55.5913 43.6385 55.5033C43.5985 55.4073 43.5265 55.3593 43.4225 55.3593C43.3665 55.3593 43.2985 55.3753 43.2185 55.4073C43.1465 55.4393 43.0625 55.4793 42.9665 55.5273C42.7585 55.6313 42.4865 55.7473 42.1505 55.8753C41.8145 55.9953 41.4185 56.0553 40.9625 56.0553ZM48.6272 56.0553C48.3072 56.0553 48.0152 56.0033 47.7512 55.8993C47.4952 55.7953 47.2632 55.6913 47.0552 55.5873C46.8792 55.4913 46.7312 55.4193 46.6112 55.3713C46.4992 55.3233 46.3992 55.2993 46.3112 55.2993C46.1992 55.2993 46.1192 55.3473 46.0712 55.4433C46.0312 55.5313 45.9992 55.6313 45.9752 55.7433L45.9392 55.9233H45.6392L45.6992 54.5073L45.6632 52.9593H45.9632L46.0952 53.5233C46.1832 53.8753 46.3392 54.2193 46.5632 54.5553C46.7952 54.8913 47.0832 55.1673 47.4272 55.3833C47.7792 55.5993 48.1792 55.7073 48.6272 55.7073C48.8752 55.7073 49.1112 55.6553 49.3352 55.5513C49.5672 55.4393 49.7552 55.2713 49.8992 55.0473C50.0512 54.8233 50.1272 54.5313 50.1272 54.1713C50.1272 53.6353 49.9512 53.2033 49.5992 52.8753C49.2552 52.5473 48.7752 52.2353 48.1592 51.9393L47.6552 51.6993C47.0552 51.4113 46.6072 51.0953 46.3112 50.7513C46.0232 50.3993 45.8792 49.9513 45.8792 49.4073C45.8792 48.9833 45.9832 48.6073 46.1912 48.2793C46.3992 47.9513 46.6832 47.6953 47.0432 47.5113C47.4112 47.3273 47.8312 47.2353 48.3032 47.2353C48.6312 47.2353 48.9072 47.2793 49.1312 47.3673C49.3552 47.4553 49.5312 47.5313 49.6592 47.5953C49.8672 47.6993 50.0312 47.7513 50.1512 47.7513C50.2792 47.7513 50.3552 47.6273 50.3792 47.3793H50.6792L50.6432 48.5313L50.6672 49.6953H50.3672C50.3192 49.2473 50.1952 48.8673 49.9952 48.5553C49.7952 48.2353 49.5512 47.9913 49.2632 47.8233C48.9832 47.6553 48.6832 47.5713 48.3632 47.5713C47.8912 47.5713 47.5072 47.7073 47.2112 47.9793C46.9232 48.2513 46.7792 48.5993 46.7792 49.0233C46.7792 49.4793 46.9272 49.8393 47.2232 50.1033C47.5192 50.3593 47.9032 50.6033 48.3752 50.8353L48.8672 51.0753C49.3072 51.2913 49.6832 51.5153 49.9952 51.7473C50.3152 51.9713 50.5592 52.2353 50.7272 52.5393C50.9032 52.8433 50.9912 53.2233 50.9912 53.6793C50.9912 54.1513 50.8832 54.5673 50.6672 54.9273C50.4592 55.2873 50.1752 55.5673 49.8152 55.7673C49.4632 55.9593 49.0672 56.0553 48.6272 56.0553Z" fill="white"/>
<path d="M1.73372 71.9593V71.6593L1.97372 71.6353C2.25372 71.6033 2.46572 71.5633 2.60972 71.5153C2.76172 71.4593 2.86572 71.3473 2.92172 71.1793C2.97772 71.0033 3.00572 70.7193 3.00572 70.3273V64.9993C3.00572 64.5993 2.97772 64.3153 2.92172 64.1473C2.86572 63.9793 2.76172 63.8713 2.60972 63.8233C2.46572 63.7673 2.25372 63.7233 1.97372 63.6913L1.73372 63.6673V63.3673L3.50972 63.4033H4.18172L7.03772 70.3273L10.1937 63.4033H10.9137L12.5937 63.3673V63.6673L12.3537 63.6913C12.0817 63.7233 11.8697 63.7673 11.7177 63.8233C11.5657 63.8713 11.4617 63.9793 11.4057 64.1473C11.3497 64.3153 11.3217 64.5993 11.3217 64.9993V70.3273C11.3217 70.7193 11.3497 71.0033 11.4057 71.1793C11.4617 71.3553 11.5657 71.4673 11.7177 71.5153C11.8697 71.5633 12.0817 71.6033 12.3537 71.6353L12.5937 71.6593V71.9593L10.8177 71.9233L9.02972 71.9593V71.6593L9.26972 71.6353C9.54972 71.6033 9.76172 71.5633 9.90572 71.5153C10.0577 71.4673 10.1617 71.3553 10.2177 71.1793C10.2737 71.0033 10.3017 70.7193 10.3017 70.3273V64.1593L6.74972 71.9233H6.52172L3.42572 64.2793V70.6633C3.42572 70.9193 3.45772 71.1113 3.52172 71.2393C3.58572 71.3673 3.68972 71.4593 3.83372 71.5153C3.98572 71.5633 4.19372 71.6033 4.45772 71.6353L4.69772 71.6593V71.9593L3.17372 71.9233L1.73372 71.9593ZM17.8073 72.0553C16.8073 72.0553 16.0313 71.8353 15.4793 71.3953C14.9273 70.9553 14.6513 70.2393 14.6513 69.2473V64.9993C14.6513 64.5993 14.6233 64.3153 14.5673 64.1473C14.5113 63.9793 14.4073 63.8713 14.2553 63.8233C14.1113 63.7673 13.8993 63.7233 13.6193 63.6913L13.3793 63.6673V63.3673L15.1553 63.4033H15.1673L16.9433 63.3673V63.6673L16.7033 63.6913C16.4313 63.7233 16.2193 63.7673 16.0673 63.8233C15.9153 63.8713 15.8113 63.9793 15.7553 64.1473C15.6993 64.3153 15.6713 64.5993 15.6713 64.9993V69.2473C15.6713 70.0553 15.8913 70.6593 16.3313 71.0593C16.7713 71.4593 17.3393 71.6593 18.0353 71.6593C18.8433 71.6593 19.4273 71.4393 19.7873 70.9993C20.1473 70.5513 20.3273 69.9433 20.3273 69.1753V64.9993C20.3273 64.5993 20.2993 64.3153 20.2433 64.1473C20.1873 63.9793 20.0833 63.8713 19.9313 63.8233C19.7873 63.7673 19.5753 63.7233 19.2953 63.6913L19.0553 63.6673V63.3673L20.8313 63.3913L22.0193 63.3673V63.6673L21.7793 63.6913C21.5073 63.7233 21.2953 63.7673 21.1433 63.8233C20.9913 63.8713 20.8873 63.9793 20.8313 64.1473C20.7753 64.3153 20.7473 64.5993 20.7473 64.9993V69.1753C20.7473 70.1033 20.5033 70.8153 20.0153 71.3113C19.5273 71.8073 18.7913 72.0553 17.8073 72.0553ZM25.7873 72.0553C25.4673 72.0553 25.1753 72.0033 24.9113 71.8993C24.6553 71.7953 24.4233 71.6913 24.2153 71.5873C24.0393 71.4913 23.8913 71.4193 23.7713 71.3713C23.6593 71.3233 23.5593 71.2993 23.4713 71.2993C23.3593 71.2993 23.2793 71.3473 23.2313 71.4433C23.1913 71.5313 23.1593 71.6313 23.1353 71.7433L23.0993 71.9233H22.7993L22.8593 70.5073L22.8233 68.9593H23.1233L23.2553 69.5233C23.3433 69.8753 23.4993 70.2193 23.7233 70.5553C23.9553 70.8913 24.2433 71.1673 24.5873 71.3833C24.9393 71.5993 25.3393 71.7073 25.7873 71.7073C26.0353 71.7073 26.2713 71.6553 26.4953 71.5513C26.7273 71.4393 26.9153 71.2713 27.0593 71.0473C27.2113 70.8233 27.2873 70.5313 27.2873 70.1713C27.2873 69.6353 27.1113 69.2033 26.7593 68.8753C26.4153 68.5473 25.9353 68.2353 25.3193 67.9393L24.8153 67.6993C24.2153 67.4113 23.7673 67.0953 23.4713 66.7513C23.1833 66.3993 23.0393 65.9513 23.0393 65.4073C23.0393 64.9833 23.1433 64.6073 23.3513 64.2793C23.5593 63.9513 23.8433 63.6953 24.2033 63.5113C24.5713 63.3273 24.9913 63.2353 25.4633 63.2353C25.7913 63.2353 26.0673 63.2793 26.2913 63.3673C26.5153 63.4553 26.6913 63.5313 26.8193 63.5953C27.0273 63.6993 27.1913 63.7513 27.3113 63.7513C27.4393 63.7513 27.5153 63.6273 27.5393 63.3793H27.8393L27.8033 64.5313L27.8273 65.6953H27.5273C27.4793 65.2473 27.3553 64.8673 27.1553 64.5553C26.9553 64.2353 26.7113 63.9913 26.4233 63.8233C26.1433 63.6553 25.8433 63.5713 25.5233 63.5713C25.0513 63.5713 24.6673 63.7073 24.3713 63.9793C24.0833 64.2513 23.9393 64.5993 23.9393 65.0233C23.9393 65.4793 24.0873 65.8393 24.3833 66.1033C24.6793 66.3593 25.0633 66.6033 25.5353 66.8353L26.0273 67.0753C26.4673 67.2913 26.8433 67.5153 27.1553 67.7473C27.4753 67.9713 27.7193 68.2353 27.8873 68.5393C28.0633 68.8433 28.1513 69.2233 28.1513 69.6793C28.1513 70.1513 28.0433 70.5673 27.8273 70.9273C27.6193 71.2873 27.3353 71.5673 26.9753 71.7673C26.6233 71.9593 26.2273 72.0553 25.7873 72.0553ZM29.2859 71.9593V71.6593L29.5259 71.6353C29.8059 71.6033 30.0179 71.5633 30.1619 71.5153C30.3139 71.4593 30.4179 71.3473 30.4739 71.1793C30.5299 71.0033 30.5579 70.7193 30.5579 70.3273V64.9993C30.5579 64.5993 30.5299 64.3153 30.4739 64.1473C30.4179 63.9793 30.3139 63.8713 30.1619 63.8233C30.0179 63.7673 29.8059 63.7233 29.5259 63.6913L29.2859 63.6673V63.3673L31.0619 63.4033H35.7179L35.7419 64.2673L35.8379 65.3713H35.5499C35.4939 65.0113 35.4179 64.7233 35.3219 64.5073C35.2339 64.2913 35.1059 64.1313 34.9379 64.0273C34.7699 63.9153 34.5419 63.8433 34.2539 63.8113C33.9739 63.7713 33.6099 63.7513 33.1619 63.7513H31.5779V67.2673H32.9219C33.0819 67.2673 33.2219 67.2313 33.3419 67.1593C33.4619 67.0793 33.5579 66.9353 33.6299 66.7273C33.7099 66.5193 33.7579 66.2193 33.7739 65.8273H34.0739L34.0379 67.4353L34.0739 69.2113H33.7739C33.7739 68.6273 33.7019 68.2153 33.5579 67.9753C33.4139 67.7273 33.2019 67.6033 32.9219 67.6033H31.5779V70.6393C31.5779 71.0233 31.6619 71.2793 31.8299 71.4073C31.9979 71.5273 32.3099 71.5873 32.7659 71.5873H33.8819C34.3459 71.5873 34.7059 71.5353 34.9619 71.4313C35.2259 71.3273 35.4219 71.1193 35.5499 70.8073C35.6779 70.4873 35.7659 70.0193 35.8139 69.4033H36.1139L36.0299 70.8433L35.9939 71.9233H31.0619L29.2859 71.9593ZM41.3269 72.0553C40.3269 72.0553 39.5509 71.8353 38.9989 71.3953C38.4469 70.9553 38.1709 70.2393 38.1709 69.2473V64.9993C38.1709 64.5993 38.1429 64.3153 38.0869 64.1473C38.0309 63.9793 37.9269 63.8713 37.7749 63.8233C37.6309 63.7673 37.4189 63.7233 37.1389 63.6913L36.8989 63.6673V63.3673L38.6749 63.4033H38.6869L40.4629 63.3673V63.6673L40.2229 63.6913C39.9509 63.7233 39.7389 63.7673 39.5869 63.8233C39.4349 63.8713 39.3309 63.9793 39.2749 64.1473C39.2189 64.3153 39.1909 64.5993 39.1909 64.9993V69.2473C39.1909 70.0553 39.4109 70.6593 39.8509 71.0593C40.2909 71.4593 40.8589 71.6593 41.5549 71.6593C42.3629 71.6593 42.9469 71.4393 43.3069 70.9993C43.6669 70.5513 43.8469 69.9433 43.8469 69.1753V64.9993C43.8469 64.5993 43.8189 64.3153 43.7629 64.1473C43.7069 63.9793 43.6029 63.8713 43.4509 63.8233C43.3069 63.7673 43.0949 63.7233 42.8149 63.6913L42.5749 63.6673V63.3673L44.3509 63.3913L45.5389 63.3673V63.6673L45.2989 63.6913C45.0269 63.7233 44.8149 63.7673 44.6629 63.8233C44.5109 63.8713 44.4069 63.9793 44.3509 64.1473C44.2949 64.3153 44.2669 64.5993 44.2669 64.9993V69.1753C44.2669 70.1033 44.0229 70.8153 43.5349 71.3113C43.0469 71.8073 42.3109 72.0553 41.3269 72.0553ZM46.0189 71.9593V71.6593L46.2589 71.6353C46.5389 71.6033 46.7509 71.5633 46.8949 71.5153C47.0469 71.4593 47.1509 71.3473 47.2069 71.1793C47.2629 71.0033 47.2909 70.7193 47.2909 70.3273V64.9993C47.2909 64.5993 47.2629 64.3153 47.2069 64.1473C47.1509 63.9793 47.0469 63.8713 46.8949 63.8233C46.7509 63.7673 46.5389 63.7233 46.2589 63.6913L46.0189 63.6673V63.3673L47.7949 63.4033H48.4669L51.3229 70.3273L54.4789 63.4033H55.1989L56.8789 63.3673V63.6673L56.6389 63.6913C56.3669 63.7233 56.1549 63.7673 56.0029 63.8233C55.8509 63.8713 55.7469 63.9793 55.6909 64.1473C55.6349 64.3153 55.6069 64.5993 55.6069 64.9993V70.3273C55.6069 70.7193 55.6349 71.0033 55.6909 71.1793C55.7469 71.3553 55.8509 71.4673 56.0029 71.5153C56.1549 71.5633 56.3669 71.6033 56.6389 71.6353L56.8789 71.6593V71.9593L55.1029 71.9233L53.3149 71.9593V71.6593L53.5549 71.6353C53.8349 71.6033 54.0469 71.5633 54.1909 71.5153C54.3429 71.4673 54.4469 71.3553 54.5029 71.1793C54.5589 71.0033 54.5869 70.7193 54.5869 70.3273V64.1593L51.0349 71.9233H50.8069L47.7109 64.2793V70.6633C47.7109 70.9193 47.7429 71.1113 47.8069 71.2393C47.8709 71.3673 47.9749 71.4593 48.1189 71.5153C48.2709 71.5633 48.4789 71.6033 48.7429 71.6353L48.9829 71.6593V71.9593L47.4589 71.9233L46.0189 71.9593Z" fill="white"/>
</svg>
